<svg id="eeT7DC2OMkg1" xmlns="http://www.w3.org/2000/svg" xmlns:xlink="http://www.w3.org/1999/xlink" viewBox="0 0 142 36" shape-rendering="geometricPrecision" text-rendering="geometricPrecision"><path d="M11,10h-6c-2.76142,0-5,2.2386-5,5v6c0,2.7614,2.23858,5,5,5h6c2.7614,0,5-2.2386,5-5v-6c0-2.7614-2.2386-5-5-5Z" fill="#915d1a"/><path d="M23,5h-12C7.13401,5,4,8.13401,4,12v12c0,3.866,3.13401,7,7,7h12c3.866,0,7-3.134,7-7v-12c0-3.86599-3.134-7-7-7Z" fill="#d59646"/><path d="M38,0h-20c-4.4183,0-8,3.58172-8,8v20c0,4.4183,3.5817,8,8,8h20c4.4183,0,8-3.5817,8-8v-20c0-4.41828-3.5817-8-8-8Z" fill="#ff9d20"/><g transform="translate(.000001 0.000001)"><path d="M28.224,8.596h-5.404v19.404h5.824c4.956,0,9.66-1.988,9.66-9.8c0-8.008-4.9-9.604-10.08-9.604Zm.644,3.332c2.688,0,4.676,1.064,4.676,6.272c0,5.152-1.848,6.468-4.62,6.468h-1.512v-12.74Z" fill="#fff"/></g><path d="M66.3313,20.188c0-4.508-2.1-7.28-6.076-7.28-3.808,0-6.132,3.276-6.132,7.868c0,4.676,2.408,7.56,6.524,7.56c2.044,0,3.696-.7,5.152-1.848l-1.12-1.54c-1.288.896-2.38,1.288-3.836,1.288-2.128,0-3.724-1.316-3.976-4.732h9.408c.028-.336.056-.812.056-1.316Zm-2.548-.588h-6.916c.196-3.276,1.484-4.648,3.444-4.648c2.324,0,3.472,1.596,3.472,4.48Zm9.4625,8.736c.756,0,1.484-.196,2.044-.504l-.672-1.792c-.28.112-.588.168-.952.168-.672,0-.924-.392-.924-1.176v-18.032l-2.576.308v17.78c0,2.1,1.204,3.248,3.08,3.248ZM79.8243,6.16c-1.064,0-1.792.756-1.792,1.764c0,.98.728,1.736,1.792,1.736c1.092,0,1.82-.756,1.82-1.736c0-1.008-.728-1.764-1.82-1.764Zm1.316,7.084h-2.576v14.756h2.576Zm16.0823,0h-2.716l-3.836,12.46-3.864-12.46h-2.8L89.1026,28h3.108Zm13.9794,6.944c0-4.508-2.1-7.28-6.076-7.28-3.808,0-6.1316,3.276-6.1316,7.868c0,4.676,2.4076,7.56,6.5236,7.56c2.044,0,3.696-.7,5.152-1.848l-1.12-1.54c-1.288.896-2.38,1.288-3.836,1.288-2.128,0-3.724-1.316-3.976-4.732h9.408c.028-.336.056-.812.056-1.316Zm-2.548-.588h-6.916c.196-3.276,1.484-4.648,3.444-4.648c2.324,0,3.472,1.596,3.472,4.48Zm12.963-6.692c-1.792,0-3.164,1.12-3.948,3.332l-.252-2.996h-2.212v14.756h2.576v-8.428c.616-2.828,1.68-4.144,3.528-4.144.532,0,.84.056,1.288.168l.476-2.52c-.448-.112-.98-.168-1.456-.168Zm15.227.336h-2.66l-3.864,12.88-3.948-12.88h-2.744L128.584,28h.868c-.84,2.296-1.68,3.444-4.676,3.948l.28,2.016c4.088-.448,5.824-2.744,6.86-5.88Z" fill="#263238"/></svg>
